<svg xmlns="http://www.w3.org/2000/svg" width="1000" height="680" viewBox="0 0 1000 680" role="img">
  <rect width="100%" height="100%" fill="#ffffff"/>
  <style>
    text { font-family: "Times New Roman", Times, serif; fill: #111111; }
    .title { font-size: 22px; font-weight: 400; }
    .axis-label { font-size: 16px; }
    .tick { font-size: 12px; }
    .legend { font-size: 13px; }
    .note { font-size: 12px; }
  </style>
  <text x="500.0" y="45" text-anchor="middle" class="title">Normalized On-chain Authorization Verification Cost vs. Batch Size (n)</text>
  <line x1="124" y1="534.0" x2="901" y2="534.0" stroke="#9aa0a6" stroke-width="0.45" opacity="0.2"/>
  <line x1="124" y1="526.8" x2="901" y2="526.8" stroke="#9aa0a6" stroke-width="0.45" opacity="0.2"/>
  <line x1="124" y1="520.3" x2="901" y2="520.3" stroke="#9aa0a6" stroke-width="0.8" opacity="0.35"/>
  <line x1="124" y1="477.8" x2="901" y2="477.8" stroke="#9aa0a6" stroke-width="0.45" opacity="0.2"/>
  <line x1="124" y1="453.0" x2="901" y2="453.0" stroke="#9aa0a6" stroke-width="0.45" opacity="0.2"/>
  <line x1="124" y1="435.3" x2="901" y2="435.3" stroke="#9aa0a6" stroke-width="0.45" opacity="0.2"/>
  <line x1="124" y1="421.7" x2="901" y2="421.7" stroke="#9aa0a6" stroke-width="0.45" opacity="0.2"/>
  <line x1="124" y1="410.5" x2="901" y2="410.5" stroke="#9aa0a6" stroke-width="0.45" opacity="0.2"/>
  <line x1="124" y1="401.0" x2="901" y2="401.0" stroke="#9aa0a6" stroke-width="0.45" opacity="0.2"/>
  <line x1="124" y1="392.8" x2="901" y2="392.8" stroke="#9aa0a6" stroke-width="0.45" opacity="0.2"/>
  <line x1="124" y1="385.6" x2="901" y2="385.6" stroke="#9aa0a6" stroke-width="0.45" opacity="0.2"/>
  <line x1="124" y1="379.2" x2="901" y2="379.2" stroke="#9aa0a6" stroke-width="0.8" opacity="0.35"/>
  <line x1="124" y1="336.7" x2="901" y2="336.7" stroke="#9aa0a6" stroke-width="0.45" opacity="0.2"/>
  <line x1="124" y1="311.8" x2="901" y2="311.8" stroke="#9aa0a6" stroke-width="0.45" opacity="0.2"/>
  <line x1="124" y1="294.2" x2="901" y2="294.2" stroke="#9aa0a6" stroke-width="0.45" opacity="0.2"/>
  <line x1="124" y1="280.5" x2="901" y2="280.5" stroke="#9aa0a6" stroke-width="0.45" opacity="0.2"/>
  <line x1="124" y1="269.3" x2="901" y2="269.3" stroke="#9aa0a6" stroke-width="0.45" opacity="0.2"/>
  <line x1="124" y1="259.9" x2="901" y2="259.9" stroke="#9aa0a6" stroke-width="0.45" opacity="0.2"/>
  <line x1="124" y1="251.7" x2="901" y2="251.7" stroke="#9aa0a6" stroke-width="0.45" opacity="0.2"/>
  <line x1="124" y1="244.5" x2="901" y2="244.5" stroke="#9aa0a6" stroke-width="0.45" opacity="0.2"/>
  <line x1="124" y1="238.0" x2="901" y2="238.0" stroke="#9aa0a6" stroke-width="0.8" opacity="0.35"/>
  <line x1="124" y1="195.5" x2="901" y2="195.5" stroke="#9aa0a6" stroke-width="0.45" opacity="0.2"/>
  <line x1="124" y1="170.7" x2="901" y2="170.7" stroke="#9aa0a6" stroke-width="0.45" opacity="0.2"/>
  <line x1="124" y1="153.0" x2="901" y2="153.0" stroke="#9aa0a6" stroke-width="0.45" opacity="0.2"/>
  <line x1="124" y1="139.3" x2="901" y2="139.3" stroke="#9aa0a6" stroke-width="0.45" opacity="0.2"/>
  <line x1="124" y1="128.2" x2="901" y2="128.2" stroke="#9aa0a6" stroke-width="0.45" opacity="0.2"/>
  <line x1="124" y1="118.7" x2="901" y2="118.7" stroke="#9aa0a6" stroke-width="0.45" opacity="0.2"/>
  <line x1="124" y1="110.5" x2="901" y2="110.5" stroke="#9aa0a6" stroke-width="0.45" opacity="0.2"/>
  <line x1="124" y1="103.3" x2="901" y2="103.3" stroke="#9aa0a6" stroke-width="0.45" opacity="0.2"/>
  <line x1="124" y1="96.9" x2="901" y2="96.9" stroke="#9aa0a6" stroke-width="0.8" opacity="0.35"/>
  <line x1="124.0" y1="72" x2="124.0" y2="534" stroke="#9aa0a6" stroke-width="0.55" opacity="0.25"/>
  <line x1="159.1" y1="72" x2="159.1" y2="534" stroke="#9aa0a6" stroke-width="0.55" opacity="0.25"/>
  <line x1="315.3" y1="72" x2="315.3" y2="534" stroke="#9aa0a6" stroke-width="0.55" opacity="0.25"/>
  <line x1="510.5" y1="72" x2="510.5" y2="534" stroke="#9aa0a6" stroke-width="0.55" opacity="0.25"/>
  <line x1="901.0" y1="72" x2="901.0" y2="534" stroke="#9aa0a6" stroke-width="0.55" opacity="0.25"/>
  <rect x="124" y="72" width="777" height="462" fill="none" stroke="#111111" stroke-width="1"/>
  <text x="110" y="525.3" text-anchor="end" class="tick">10^0</text>
  <text x="110" y="384.2" text-anchor="end" class="tick">10^1</text>
  <text x="110" y="243.0" text-anchor="end" class="tick">10^2</text>
  <text x="110" y="101.9" text-anchor="end" class="tick">10^3</text>
  <text x="124.0" y="556" text-anchor="middle" class="tick">1</text>
  <text x="159.1" y="556" text-anchor="middle" class="tick">10</text>
  <text x="315.3" y="556" text-anchor="middle" class="tick">50</text>
  <text x="510.5" y="556" text-anchor="middle" class="tick">100</text>
  <text x="901.0" y="556" text-anchor="middle" class="tick">200</text>
  <text x="512.5" y="589" text-anchor="middle" class="axis-label">Batch Size / Authorization Requests (n)</text>
  <text x="32" y="303.0" text-anchor="middle" class="axis-label" transform="rotate(-90 32 303.0)">Normalized On-chain Verification Cost</text>
  <polyline points="124.0,336.7 159.1,336.7 315.3,336.7 510.5,336.7 901.0,336.7" fill="none" stroke="#2b6aa6" stroke-width="2.5" stroke-linecap="round" stroke-linejoin="round"/>
  <circle cx="124.0" cy="336.7" r="5" fill="#2b6aa6" stroke="#1b1b1b" stroke-width="1"/>
  <circle cx="159.1" cy="336.7" r="5" fill="#2b6aa6" stroke="#1b1b1b" stroke-width="1"/>
  <circle cx="315.3" cy="336.7" r="5" fill="#2b6aa6" stroke="#1b1b1b" stroke-width="1"/>
  <circle cx="510.5" cy="336.7" r="5" fill="#2b6aa6" stroke="#1b1b1b" stroke-width="1"/>
  <circle cx="901.0" cy="336.7" r="5" fill="#2b6aa6" stroke="#1b1b1b" stroke-width="1"/>
  <polyline points="124.0,279.3 159.1,235.0 315.3,162.1 510.5,123.7 901.0,83.4" fill="none" stroke="#f0ad00" stroke-width="2.5" stroke-dasharray="8 4" stroke-linecap="round" stroke-linejoin="round"/>
  <rect x="119.0" y="274.3" width="10" height="10" fill="#f0ad00" stroke="#1b1b1b" stroke-width="1"/>
  <rect x="154.1" y="230.0" width="10" height="10" fill="#f0ad00" stroke="#1b1b1b" stroke-width="1"/>
  <rect x="310.3" y="157.1" width="10" height="10" fill="#f0ad00" stroke="#1b1b1b" stroke-width="1"/>
  <rect x="505.5" y="118.7" width="10" height="10" fill="#f0ad00" stroke="#1b1b1b" stroke-width="1"/>
  <rect x="896.0" y="78.4" width="10" height="10" fill="#f0ad00" stroke="#1b1b1b" stroke-width="1"/>
  <polyline points="124.0,520.3 159.1,379.2 315.3,280.5 510.5,238.0 901.0,195.5" fill="none" stroke="#c7493a" stroke-width="2.5" stroke-dasharray="2 4" stroke-linecap="round" stroke-linejoin="round"/>
  <polygon points="124.0,514.3 118.0,525.3 130.0,525.3" fill="#c7493a" stroke="#1b1b1b" stroke-width="1"/>
  <polygon points="159.1,373.2 153.1,384.2 165.1,384.2" fill="#c7493a" stroke="#1b1b1b" stroke-width="1"/>
  <polygon points="315.3,274.5 309.3,285.5 321.3,285.5" fill="#c7493a" stroke="#1b1b1b" stroke-width="1"/>
  <polygon points="510.5,232.0 504.5,243.0 516.5,243.0" fill="#c7493a" stroke="#1b1b1b" stroke-width="1"/>
  <polygon points="901.0,189.5 895.0,200.5 907.0,200.5" fill="#c7493a" stroke="#1b1b1b" stroke-width="1"/>
  <polyline points="124.0,520.3 159.1,379.2 315.3,280.5 510.5,238.0 901.0,195.5" fill="none" stroke="#3aa34a" stroke-width="2.5" stroke-dasharray="10 4 2 4" stroke-linecap="round" stroke-linejoin="round"/>
  <line x1="119.0" y1="515.3" x2="129.0" y2="525.3" stroke="#3aa34a" stroke-width="2"/>
  <line x1="119.0" y1="525.3" x2="129.0" y2="515.3" stroke="#3aa34a" stroke-width="2"/>
  <line x1="154.1" y1="374.2" x2="164.1" y2="384.2" stroke="#3aa34a" stroke-width="2"/>
  <line x1="154.1" y1="384.2" x2="164.1" y2="374.2" stroke="#3aa34a" stroke-width="2"/>
  <line x1="310.3" y1="275.5" x2="320.3" y2="285.5" stroke="#3aa34a" stroke-width="2"/>
  <line x1="310.3" y1="285.5" x2="320.3" y2="275.5" stroke="#3aa34a" stroke-width="2"/>
  <line x1="505.5" y1="233.0" x2="515.5" y2="243.0" stroke="#3aa34a" stroke-width="2"/>
  <line x1="505.5" y1="243.0" x2="515.5" y2="233.0" stroke="#3aa34a" stroke-width="2"/>
  <line x1="896.0" y1="190.5" x2="906.0" y2="200.5" stroke="#3aa34a" stroke-width="2"/>
  <line x1="896.0" y1="200.5" x2="906.0" y2="190.5" stroke="#3aa34a" stroke-width="2"/>
  <text x="480" y="95" class="note">Scheme [30] is higher than XAuth/SSL-XIoMT because it adds</text>
  <text x="480" y="112" class="note">pairing/ZKP-related verification and linear group operations.</text>
  <line x1="124.0" y1="619" x2="156.0" y2="619" stroke="#2b6aa6" stroke-width="2.5" stroke-linecap="round"/>
  <circle cx="140.0" cy="619.0" r="5" fill="#2b6aa6" stroke="#1b1b1b" stroke-width="1"/>
  <text x="166.0" y="623" class="legend">SCAPE-ZK (O(1), T_pair)</text>
  <line x1="512.5" y1="619" x2="544.5" y2="619" stroke="#f0ad00" stroke-width="2.5" stroke-dasharray="8 4" stroke-linecap="round"/>
  <rect x="523.5" y="614.0" width="10" height="10" fill="#f0ad00" stroke="#1b1b1b" stroke-width="1"/>
  <text x="554.5" y="623" class="legend">Scheme [30] (O(n), agg-signature + group ops)</text>
  <line x1="124.0" y1="641" x2="156.0" y2="641" stroke="#c7493a" stroke-width="2.5" stroke-dasharray="2 4" stroke-linecap="round"/>
  <polygon points="140.0,635.0 134.0,646.0 146.0,646.0" fill="#c7493a" stroke="#1b1b1b" stroke-width="1"/>
  <text x="166.0" y="645" class="legend">XAuth [6] (O(n), nT_hash)</text>
  <line x1="512.5" y1="641" x2="544.5" y2="641" stroke="#3aa34a" stroke-width="2.5" stroke-dasharray="10 4 2 4" stroke-linecap="round"/>
  <line x1="523.5" y1="636.0" x2="533.5" y2="646.0" stroke="#3aa34a" stroke-width="2"/>
  <line x1="523.5" y1="646.0" x2="533.5" y2="636.0" stroke="#3aa34a" stroke-width="2"/>
  <text x="554.5" y="645" class="legend">SSL-XIoMT [8] (O(n), nT_hash)</text>
</svg>