<svg xmlns="http://www.w3.org/2000/svg" width="1000" height="680" viewBox="0 0 1000 680" role="img">
  <rect width="100%" height="100%" fill="#ffffff"/>
  <style>
    text { font-family: "Times New Roman", Times, serif; fill: #111111; }
    .title { font-size: 22px; font-weight: 400; }
    .axis-label { font-size: 16px; }
    .tick { font-size: 12px; }
    .legend { font-size: 13px; }
    .note { font-size: 12px; }
  </style>
  <text x="500.0" y="45" text-anchor="middle" class="title">On-chain Authorization Verification Cost</text>
  <line x1="124" y1="534.0" x2="901" y2="534.0" stroke="#9aa0a6" stroke-width="0.45" opacity="0.2"/>
  <line x1="124" y1="526.8" x2="901" y2="526.8" stroke="#9aa0a6" stroke-width="0.45" opacity="0.2"/>
  <line x1="124" y1="520.3" x2="901" y2="520.3" stroke="#9aa0a6" stroke-width="0.8" opacity="0.35"/>
  <line x1="124" y1="477.8" x2="901" y2="477.8" stroke="#9aa0a6" stroke-width="0.45" opacity="0.2"/>
  <line x1="124" y1="453.0" x2="901" y2="453.0" stroke="#9aa0a6" stroke-width="0.45" opacity="0.2"/>
  <line x1="124" y1="435.3" x2="901" y2="435.3" stroke="#9aa0a6" stroke-width="0.45" opacity="0.2"/>
  <line x1="124" y1="421.7" x2="901" y2="421.7" stroke="#9aa0a6" stroke-width="0.45" opacity="0.2"/>
  <line x1="124" y1="410.5" x2="901" y2="410.5" stroke="#9aa0a6" stroke-width="0.45" opacity="0.2"/>
  <line x1="124" y1="401.0" x2="901" y2="401.0" stroke="#9aa0a6" stroke-width="0.45" opacity="0.2"/>
  <line x1="124" y1="392.8" x2="901" y2="392.8" stroke="#9aa0a6" stroke-width="0.45" opacity="0.2"/>
  <line x1="124" y1="385.6" x2="901" y2="385.6" stroke="#9aa0a6" stroke-width="0.45" opacity="0.2"/>
  <line x1="124" y1="379.2" x2="901" y2="379.2" stroke="#9aa0a6" stroke-width="0.8" opacity="0.35"/>
  <line x1="124" y1="336.7" x2="901" y2="336.7" stroke="#9aa0a6" stroke-width="0.45" opacity="0.2"/>
  <line x1="124" y1="311.8" x2="901" y2="311.8" stroke="#9aa0a6" stroke-width="0.45" opacity="0.2"/>
  <line x1="124" y1="294.2" x2="901" y2="294.2" stroke="#9aa0a6" stroke-width="0.45" opacity="0.2"/>
  <line x1="124" y1="280.5" x2="901" y2="280.5" stroke="#9aa0a6" stroke-width="0.45" opacity="0.2"/>
  <line x1="124" y1="269.3" x2="901" y2="269.3" stroke="#9aa0a6" stroke-width="0.45" opacity="0.2"/>
  <line x1="124" y1="259.9" x2="901" y2="259.9" stroke="#9aa0a6" stroke-width="0.45" opacity="0.2"/>
  <line x1="124" y1="251.7" x2="901" y2="251.7" stroke="#9aa0a6" stroke-width="0.45" opacity="0.2"/>
  <line x1="124" y1="244.5" x2="901" y2="244.5" stroke="#9aa0a6" stroke-width="0.45" opacity="0.2"/>
  <line x1="124" y1="238.0" x2="901" y2="238.0" stroke="#9aa0a6" stroke-width="0.8" opacity="0.35"/>
  <line x1="124" y1="195.5" x2="901" y2="195.5" stroke="#9aa0a6" stroke-width="0.45" opacity="0.2"/>
  <line x1="124" y1="170.7" x2="901" y2="170.7" stroke="#9aa0a6" stroke-width="0.45" opacity="0.2"/>
  <line x1="124" y1="153.0" x2="901" y2="153.0" stroke="#9aa0a6" stroke-width="0.45" opacity="0.2"/>
  <line x1="124" y1="139.3" x2="901" y2="139.3" stroke="#9aa0a6" stroke-width="0.45" opacity="0.2"/>
  <line x1="124" y1="128.2" x2="901" y2="128.2" stroke="#9aa0a6" stroke-width="0.45" opacity="0.2"/>
  <line x1="124" y1="118.7" x2="901" y2="118.7" stroke="#9aa0a6" stroke-width="0.45" opacity="0.2"/>
  <line x1="124" y1="110.5" x2="901" y2="110.5" stroke="#9aa0a6" stroke-width="0.45" opacity="0.2"/>
  <line x1="124" y1="103.3" x2="901" y2="103.3" stroke="#9aa0a6" stroke-width="0.45" opacity="0.2"/>
  <line x1="124" y1="96.9" x2="901" y2="96.9" stroke="#9aa0a6" stroke-width="0.8" opacity="0.35"/>
  <line x1="124.0" y1="72" x2="124.0" y2="534" stroke="#9aa0a6" stroke-width="0.55" opacity="0.25"/>
  <line x1="159.1" y1="72" x2="159.1" y2="534" stroke="#9aa0a6" stroke-width="0.55" opacity="0.25"/>
  <line x1="315.3" y1="72" x2="315.3" y2="534" stroke="#9aa0a6" stroke-width="0.55" opacity="0.25"/>
  <line x1="510.5" y1="72" x2="510.5" y2="534" stroke="#9aa0a6" stroke-width="0.55" opacity="0.25"/>
  <line x1="901.0" y1="72" x2="901.0" y2="534" stroke="#9aa0a6" stroke-width="0.55" opacity="0.25"/>
  <rect x="124" y="72" width="777" height="462" fill="none" stroke="#111111" stroke-width="1"/>
  <text x="110" y="525.3" text-anchor="end" class="tick">1</text>
  <text x="110" y="384.2" text-anchor="end" class="tick">10</text>
  <text x="110" y="243.0" text-anchor="end" class="tick">100</text>
  <text x="110" y="101.9" text-anchor="end" class="tick">1,000</text>
  <text x="124.0" y="556" text-anchor="middle" class="tick">1</text>
  <text x="159.1" y="556" text-anchor="middle" class="tick">10</text>
  <text x="315.3" y="556" text-anchor="middle" class="tick">50</text>
  <text x="510.5" y="556" text-anchor="middle" class="tick">100</text>
  <text x="901.0" y="556" text-anchor="middle" class="tick">200</text>
  <text x="512.5" y="589" text-anchor="middle" class="axis-label">Workload (Number of request)</text>
  <text x="32" y="303.0" text-anchor="middle" class="axis-label" transform="rotate(-90 32 303.0)">Verification cost</text>
  <polyline points="124.0,336.7 159.1,336.7 315.3,336.7 510.5,336.7 901.0,336.7" fill="none" stroke="#e5a800" stroke-width="2.5" stroke-linecap="round" stroke-linejoin="round"/>
  <polygon points="124.0,330.7 118.0,336.7 124.0,342.7 130.0,336.7" fill="#e5a800" stroke="#1b1b1b" stroke-width="1"/>
  <polygon points="159.1,330.7 153.1,336.7 159.1,342.7 165.1,336.7" fill="#e5a800" stroke="#1b1b1b" stroke-width="1"/>
  <polygon points="315.3,330.7 309.3,336.7 315.3,342.7 321.3,336.7" fill="#e5a800" stroke="#1b1b1b" stroke-width="1"/>
  <polygon points="510.5,330.7 504.5,336.7 510.5,342.7 516.5,336.7" fill="#e5a800" stroke="#1b1b1b" stroke-width="1"/>
  <polygon points="901.0,330.7 895.0,336.7 901.0,342.7 907.0,336.7" fill="#e5a800" stroke="#1b1b1b" stroke-width="1"/>
  <polyline points="124.0,279.3 159.1,235.0 315.3,162.1 510.5,123.7 901.0,83.4" fill="none" stroke="#2ca02c" stroke-width="2.5" stroke-dasharray="8 4" stroke-linecap="round" stroke-linejoin="round"/>
  <polygon points="124.0,273.3 118.0,284.3 130.0,284.3" fill="#2ca02c" stroke="#1b1b1b" stroke-width="1"/>
  <polygon points="159.1,229.0 153.1,240.0 165.1,240.0" fill="#2ca02c" stroke="#1b1b1b" stroke-width="1"/>
  <polygon points="315.3,156.1 309.3,167.1 321.3,167.1" fill="#2ca02c" stroke="#1b1b1b" stroke-width="1"/>
  <polygon points="510.5,117.7 504.5,128.7 516.5,128.7" fill="#2ca02c" stroke="#1b1b1b" stroke-width="1"/>
  <polygon points="901.0,77.4 895.0,88.4 907.0,88.4" fill="#2ca02c" stroke="#1b1b1b" stroke-width="1"/>
  <polyline points="124.0,520.3 159.1,379.2 315.3,280.5 510.5,238.0 901.0,195.5" fill="none" stroke="#c94a3b" stroke-width="2.5" stroke-dasharray="2 4" stroke-linecap="round" stroke-linejoin="round"/>
  <rect x="119.0" y="515.3" width="10" height="10" fill="#c94a3b" stroke="#1b1b1b" stroke-width="1"/>
  <rect x="154.1" y="374.2" width="10" height="10" fill="#c94a3b" stroke="#1b1b1b" stroke-width="1"/>
  <rect x="310.3" y="275.5" width="10" height="10" fill="#c94a3b" stroke="#1b1b1b" stroke-width="1"/>
  <rect x="505.5" y="233.0" width="10" height="10" fill="#c94a3b" stroke="#1b1b1b" stroke-width="1"/>
  <rect x="896.0" y="190.5" width="10" height="10" fill="#c94a3b" stroke="#1b1b1b" stroke-width="1"/>
  <polyline points="124.0,520.3 159.1,379.2 315.3,280.5 510.5,238.0 901.0,195.5" fill="none" stroke="#1f5f9f" stroke-width="2.5" stroke-dasharray="10 4 2 4" stroke-linecap="round" stroke-linejoin="round"/>
  <circle cx="124.0" cy="520.3" r="5" fill="#1f5f9f" stroke="#1b1b1b" stroke-width="1"/>
  <circle cx="159.1" cy="379.2" r="5" fill="#1f5f9f" stroke="#1b1b1b" stroke-width="1"/>
  <circle cx="315.3" cy="280.5" r="5" fill="#1f5f9f" stroke="#1b1b1b" stroke-width="1"/>
  <circle cx="510.5" cy="238.0" r="5" fill="#1f5f9f" stroke="#1b1b1b" stroke-width="1"/>
  <circle cx="901.0" cy="195.5" r="5" fill="#1f5f9f" stroke="#1b1b1b" stroke-width="1"/>
  <line x1="124.0" y1="619" x2="156.0" y2="619" stroke="#e5a800" stroke-width="2.5" stroke-linecap="round"/>
  <polygon points="140.0,613.0 134.0,619.0 140.0,625.0 146.0,619.0" fill="#e5a800" stroke="#1b1b1b" stroke-width="1"/>
  <text x="166.0" y="623" class="legend">SCAPE-ZK (Ours)</text>
  <line x1="512.5" y1="619" x2="544.5" y2="619" stroke="#2ca02c" stroke-width="2.5" stroke-dasharray="8 4" stroke-linecap="round"/>
  <polygon points="528.5,613.0 522.5,624.0 534.5,624.0" fill="#2ca02c" stroke="#1b1b1b" stroke-width="1"/>
  <text x="554.5" y="623" class="legend">Scheme [30]</text>
  <line x1="124.0" y1="641" x2="156.0" y2="641" stroke="#c94a3b" stroke-width="2.5" stroke-dasharray="2 4" stroke-linecap="round"/>
  <rect x="135.0" y="636.0" width="10" height="10" fill="#c94a3b" stroke="#1b1b1b" stroke-width="1"/>
  <text x="166.0" y="645" class="legend">XAuth [6]</text>
  <line x1="512.5" y1="641" x2="544.5" y2="641" stroke="#1f5f9f" stroke-width="2.5" stroke-dasharray="10 4 2 4" stroke-linecap="round"/>
  <circle cx="528.5" cy="641.0" r="5" fill="#1f5f9f" stroke="#1b1b1b" stroke-width="1"/>
  <text x="554.5" y="645" class="legend">SSL-XIoMT [8]</text>
</svg>