<svg xmlns="http://www.w3.org/2000/svg" width="920" height="460" viewBox="0 0 920 460" role="img">
  <rect width="100%" height="100%" fill="#FFFFFF"/>
  <style>
    text { font-family: Arial, Helvetica, sans-serif; fill: #222831; }
    .title { font-size: 22px; font-weight: 700; }
    .subtitle { font-size: 13px; fill: #66707A; }
    .axis { font-size: 12px; fill: #66707A; }
    .label { font-size: 12px; fill: #222831; }
    .value { font-size: 12px; font-weight: 700; fill: #222831; }
    .legend { font-size: 12px; fill: #222831; }
    .grid { stroke: #D8DDE3; stroke-width: 1; }
    .axis-line { stroke: #9AA3AD; stroke-width: 1; }
    .error { stroke: #222831; stroke-width: 1.5; }
  </style>
  <text x="90" y="38" class="title">SCAPE-ZK Transaction Success Across Repeated Trials</text>
  <text x="90" y="60" class="subtitle">All operation/load combinations completed with zero failed transactions</text>
  <text x="24" y="230.0" class="axis" transform="rotate(-90 24 230.0)">Transactions</text>
  <line x1="90" y1="372.0" x2="875" y2="372.0" class="grid"/>
  <text x="78" y="376.0" text-anchor="end" class="axis">0.00</text>
  <line x1="90" y1="315.2" x2="875" y2="315.2" class="grid"/>
  <text x="78" y="319.2" text-anchor="end" class="axis">3584</text>
  <line x1="90" y1="258.4" x2="875" y2="258.4" class="grid"/>
  <text x="78" y="262.4" text-anchor="end" class="axis">7168</text>
  <line x1="90" y1="201.6" x2="875" y2="201.6" class="grid"/>
  <text x="78" y="205.6" text-anchor="end" class="axis">10752</text>
  <line x1="90" y1="144.8" x2="875" y2="144.8" class="grid"/>
  <text x="78" y="148.8" text-anchor="end" class="axis">14336</text>
  <line x1="90" y1="88.0" x2="875" y2="88.0" class="grid"/>
  <text x="78" y="92.0" text-anchor="end" class="axis">17920</text>
  <line x1="90" y1="372" x2="875" y2="372" class="axis-line"/>
  <line x1="90" y1="88" x2="90" y2="372" class="axis-line"/>
  <rect x="120.0" y="118.4" width="121.0" height="253.6" rx="3" fill="#4C8B56"/>
  <text x="180.5" y="110.4" text-anchor="middle" class="value">16,000</text>
  <text x="180.5" y="396" text-anchor="middle" class="label">Register</text>
  <rect x="271.0" y="118.4" width="121.0" height="253.6" rx="3" fill="#4C8B56"/>
  <text x="331.5" y="110.4" text-anchor="middle" class="value">16,000</text>
  <text x="331.5" y="396" text-anchor="middle" class="label">VerifyProof</text>
  <rect x="422.0" y="118.4" width="121.0" height="253.6" rx="3" fill="#4C8B56"/>
  <text x="482.5" y="110.4" text-anchor="middle" class="value">16,000</text>
  <text x="482.5" y="396" text-anchor="middle" class="label">Revoke</text>
  <rect x="573.0" y="118.4" width="121.0" height="253.6" rx="3" fill="#4C8B56"/>
  <text x="633.5" y="110.4" text-anchor="middle" class="value">16,000</text>
  <text x="633.5" y="396" text-anchor="middle" class="label">UpdateCred</text>
  <rect x="724.0" y="118.4" width="121.0" height="253.6" rx="3" fill="#4C8B56"/>
  <text x="784.5" y="110.4" text-anchor="middle" class="value">16,000</text>
  <text x="784.5" y="396" text-anchor="middle" class="label">RecordExists</text>
  <text x="90" y="436" class="legend">Each operation totals 15,000 successful transactions: 100, 500, and 1000 tx rounds over 10 trials.</text>
</svg>
