<svg xmlns="http://www.w3.org/2000/svg" width="1000" height="620" viewBox="0 0 1000 620" role="img">
  <rect width="100%" height="100%" fill="#FFFFFF"/>
  <style>
    text { font-family: Arial, Helvetica, sans-serif; fill: #222831; }
    .title { font-size: 21px; font-weight: 700; }
    .subtitle { font-size: 12px; fill: #66707A; }
    .axis { font-size: 11px; fill: #66707A; }
    .label { font-size: 12px; }
    .value { font-size: 11px; font-weight: 700; }
    .legend { font-size: 12px; }
    .grid { stroke: #D8DDE3; stroke-width: 1; }
    .axis-line { stroke: #9AA3AD; stroke-width: 1; }
  </style>
  <text x="92" y="38" class="title">Table IV Per-Request Component Breakdown</text>
  <text x="92" y="60" class="subtitle">n=50; stacked bars use only Table IV cost columns</text>
  <text x="24" y="296.0" class="axis" transform="rotate(-90 24 296.0)">Per-request cost (ms)</text>
  <line x1="92" y1="496.0" x2="952" y2="496.0" class="grid"/>
  <text x="80" y="500.0" text-anchor="end" class="axis">0.000</text>
  <line x1="92" y1="416.0" x2="952" y2="416.0" class="grid"/>
  <text x="80" y="420.0" text-anchor="end" class="axis">250</text>
  <line x1="92" y1="336.0" x2="952" y2="336.0" class="grid"/>
  <text x="80" y="340.0" text-anchor="end" class="axis">499</text>
  <line x1="92" y1="256.0" x2="952" y2="256.0" class="grid"/>
  <text x="80" y="260.0" text-anchor="end" class="axis">749</text>
  <line x1="92" y1="176.0" x2="952" y2="176.0" class="grid"/>
  <text x="80" y="180.0" text-anchor="end" class="axis">999</text>
  <line x1="92" y1="96.0" x2="952" y2="96.0" class="grid"/>
  <text x="80" y="100.0" text-anchor="end" class="axis">1.25s</text>
  <line x1="92" y1="496" x2="952" y2="496" class="axis-line"/>
  <line x1="92" y1="96" x2="92" y2="496" class="axis-line"/>
  <rect x="146.0" y="455.7" width="147.5" height="40.3" fill="#007C89"/>
  <rect x="146.0" y="451.7" width="147.5" height="4.0" fill="#D95F43"/>
  <rect x="146.0" y="451.7" width="147.5" height="0.0" fill="#2F455C"/>
  <text x="219.8" y="443.7" text-anchor="middle" class="value">138</text>
  <text x="219.8" y="520" text-anchor="middle" class="label">XAuth [6]</text>
  <rect x="347.5" y="204.4" width="147.5" height="291.6" fill="#007C89"/>
  <rect x="347.5" y="166.7" width="147.5" height="37.7" fill="#4C8B56"/>
  <rect x="347.5" y="162.7" width="147.5" height="4.0" fill="#D95F43"/>
  <rect x="347.5" y="162.7" width="147.5" height="0.0" fill="#2F455C"/>
  <text x="421.2" y="154.7" text-anchor="middle" class="value">1.04s</text>
  <text x="421.2" y="520" text-anchor="middle" class="label">SSL-XIoMT [8]</text>
  <rect x="549.0" y="494.0" width="147.5" height="2.0" fill="#007C89"/>
  <rect x="549.0" y="488.1" width="147.5" height="5.9" fill="#D95F43"/>
  <rect x="549.0" y="488.1" width="147.5" height="0.0" fill="#2F455C"/>
  <text x="622.8" y="480.1" text-anchor="middle" class="value">24.7</text>
  <text x="622.8" y="520" text-anchor="middle" class="label">Scheme [30]</text>
  <rect x="750.5" y="452.3" width="147.5" height="43.7" fill="#007C89"/>
  <rect x="750.5" y="414.6" width="147.5" height="37.7" fill="#4C8B56"/>
  <rect x="750.5" y="410.7" width="147.5" height="4.0" fill="#D95F43"/>
  <rect x="750.5" y="410.6" width="147.5" height="0.0" fill="#2F455C"/>
  <text x="824.2" y="402.6" text-anchor="middle" class="value">266</text>
  <text x="824.2" y="520" text-anchor="middle" class="label">SCAPE-ZK</text>
  <rect x="92" y="567" width="13" height="13" fill="#007C89"/>
  <text x="112" y="578" class="legend">Amortized proof</text>
  <rect x="307" y="567" width="13" height="13" fill="#4C8B56"/>
  <text x="327" y="578" class="legend">Encrypt</text>
  <rect x="522" y="567" width="13" height="13" fill="#D95F43"/>
  <text x="542" y="578" class="legend">Proof verify</text>
  <rect x="737" y="567" width="13" height="13" fill="#2F455C"/>
  <text x="757" y="578" class="legend">Integrity/delegation</text>
</svg>
