<svg xmlns="http://www.w3.org/2000/svg" width="980" height="620" viewBox="0 0 980 620" role="img">
  <rect width="100%" height="100%" fill="#FFFFFF"/>
  <style>
    text { font-family: Arial, Helvetica, sans-serif; fill: #222831; }
    .title { font-size: 21px; font-weight: 700; }
    .subtitle { font-size: 12px; fill: #66707A; }
    .axis { font-size: 11px; fill: #66707A; }
    .label { font-size: 12px; }
    .value { font-size: 11px; font-weight: 700; }
    .legend { font-size: 12px; }
    .grid { stroke: #D8DDE3; stroke-width: 1; }
    .axis-line { stroke: #9AA3AD; stroke-width: 1; }
  </style>
  <text x="88" y="38" class="title">Table IV Computation Cost vs Request Count</text>
  <text x="88" y="60" class="subtitle">Batch total from Table IV columns only; y-axis uses log scale</text>
  <text x="24" y="302.0" class="axis" transform="rotate(-90 24 302.0)">Batch total cost (ms)</text>
  <line x1="88" y1="508.0" x2="932" y2="508.0" class="grid"/>
  <text x="76" y="512.0" text-anchor="end" class="axis">1.00</text>
  <line x1="88" y1="432.8" x2="932" y2="432.8" class="grid"/>
  <text x="76" y="436.8" text-anchor="end" class="axis">10.0</text>
  <line x1="88" y1="357.6" x2="932" y2="357.6" class="grid"/>
  <text x="76" y="361.6" text-anchor="end" class="axis">100</text>
  <line x1="88" y1="282.4" x2="932" y2="282.4" class="grid"/>
  <text x="76" y="286.4" text-anchor="end" class="axis">1.00s</text>
  <line x1="88" y1="207.2" x2="932" y2="207.2" class="grid"/>
  <text x="76" y="211.2" text-anchor="end" class="axis">10.00s</text>
  <line x1="88" y1="132.1" x2="932" y2="132.1" class="grid"/>
  <text x="76" y="136.1" text-anchor="end" class="axis">100.00s</text>
  <line x1="88.0" y1="508" x2="88.0" y2="513" class="axis-line"/>
  <text x="88.0" y="531" text-anchor="middle" class="axis">1</text>
  <line x1="105.0" y1="508" x2="105.0" y2="513" class="axis-line"/>
  <text x="105.0" y="531" text-anchor="middle" class="axis">5</text>
  <line x1="126.2" y1="508" x2="126.2" y2="513" class="axis-line"/>
  <text x="126.2" y="531" text-anchor="middle" class="axis">10</text>
  <line x1="189.8" y1="508" x2="189.8" y2="513" class="axis-line"/>
  <text x="189.8" y="531" text-anchor="middle" class="axis">25</text>
  <line x1="295.8" y1="508" x2="295.8" y2="513" class="axis-line"/>
  <text x="295.8" y="531" text-anchor="middle" class="axis">50</text>
  <line x1="507.9" y1="508" x2="507.9" y2="513" class="axis-line"/>
  <text x="507.9" y="531" text-anchor="middle" class="axis">100</text>
  <line x1="932.0" y1="508" x2="932.0" y2="513" class="axis-line"/>
  <text x="932.0" y="531" text-anchor="middle" class="axis">200</text>
  <line x1="88" y1="508" x2="932" y2="508" class="axis-line"/>
  <line x1="88" y1="96" x2="88" y2="508" class="axis-line"/>
  <text x="510.0" y="566" text-anchor="middle" class="axis">Number of requests in the batch/session</text>
  <polyline points="88.0,347.1 105.0,294.5 126.2,271.9 189.8,241.9 295.8,219.3 507.9,196.7 932.0,174.0" fill="none" stroke="#455A64" stroke-width="3"/>
  <circle cx="88.0" cy="347.1" r="4" fill="#455A64"/>
  <circle cx="105.0" cy="294.5" r="4" fill="#455A64"/>
  <circle cx="126.2" cy="271.9" r="4" fill="#455A64"/>
  <circle cx="189.8" cy="241.9" r="4" fill="#455A64"/>
  <circle cx="295.8" cy="219.3" r="4" fill="#455A64"/>
  <circle cx="507.9" cy="196.7" r="4" fill="#455A64"/>
  <circle cx="932.0" cy="174.0" r="4" fill="#455A64"/>
  <polyline points="88.0,281.1 105.0,228.6 126.2,206.0 189.8,176.0 295.8,153.4 507.9,130.8 932.0,108.1" fill="none" stroke="#007C89" stroke-width="3"/>
  <circle cx="88.0" cy="281.1" r="4" fill="#007C89"/>
  <circle cx="105.0" cy="228.6" r="4" fill="#007C89"/>
  <circle cx="126.2" cy="206.0" r="4" fill="#007C89"/>
  <circle cx="189.8" cy="176.0" r="4" fill="#007C89"/>
  <circle cx="295.8" cy="153.4" r="4" fill="#007C89"/>
  <circle cx="507.9" cy="130.8" r="4" fill="#007C89"/>
  <circle cx="932.0" cy="108.1" r="4" fill="#007C89"/>
  <polyline points="88.0,362.1 105.0,338.3 126.2,322.0 189.8,296.6 295.8,275.6 507.9,253.8 932.0,231.6" fill="none" stroke="#C4932F" stroke-width="3"/>
  <circle cx="88.0" cy="362.1" r="4" fill="#C4932F"/>
  <circle cx="105.0" cy="338.3" r="4" fill="#C4932F"/>
  <circle cx="126.2" cy="322.0" r="4" fill="#C4932F"/>
  <circle cx="189.8" cy="296.6" r="4" fill="#C4932F"/>
  <circle cx="295.8" cy="275.6" r="4" fill="#C4932F"/>
  <circle cx="507.9" cy="253.8" r="4" fill="#C4932F"/>
  <circle cx="932.0" cy="231.6" r="4" fill="#C4932F"/>
  <polyline points="88.0,290.3 105.0,263.1 126.2,245.6 189.8,219.2 295.8,197.9 507.9,175.9 932.0,153.6" fill="none" stroke="#C2185B" stroke-width="3"/>
  <circle cx="88.0" cy="290.3" r="4" fill="#C2185B"/>
  <circle cx="105.0" cy="263.1" r="4" fill="#C2185B"/>
  <circle cx="126.2" cy="245.6" r="4" fill="#C2185B"/>
  <circle cx="189.8" cy="219.2" r="4" fill="#C2185B"/>
  <circle cx="295.8" cy="197.9" r="4" fill="#C2185B"/>
  <circle cx="507.9" cy="175.9" r="4" fill="#C2185B"/>
  <circle cx="932.0" cy="153.6" r="4" fill="#C2185B"/>
  <line x1="88" y1="596" x2="116" y2="596" stroke="#455A64" stroke-width="3"/>
  <circle cx="102" cy="596" r="4" fill="#455A64"/>
  <text x="126" y="600" class="legend">XAuth [6]</text>
  <line x1="298" y1="596" x2="326" y2="596" stroke="#007C89" stroke-width="3"/>
  <circle cx="312" cy="596" r="4" fill="#007C89"/>
  <text x="336" y="600" class="legend">SSL-XIoMT [8]</text>
  <line x1="508" y1="596" x2="536" y2="596" stroke="#C4932F" stroke-width="3"/>
  <circle cx="522" cy="596" r="4" fill="#C4932F"/>
  <text x="546" y="600" class="legend">Scheme [30]</text>
  <line x1="718" y1="596" x2="746" y2="596" stroke="#C2185B" stroke-width="3"/>
  <circle cx="732" cy="596" r="4" fill="#C2185B"/>
  <text x="756" y="600" class="legend">SCAPE-ZK</text>
</svg>
