<svg xmlns="http://www.w3.org/2000/svg" width="980" height="620" viewBox="0 0 980 620" role="img">
  <rect width="100%" height="100%" fill="#FFFFFF"/>
  <style>
    text { font-family: Arial, Helvetica, sans-serif; fill: #222831; }
    .title { font-size: 21px; font-weight: 700; }
    .subtitle { font-size: 12px; fill: #66707A; }
    .axis { font-size: 11px; fill: #66707A; }
    .label { font-size: 12px; }
    .value { font-size: 11px; font-weight: 700; }
    .legend { font-size: 12px; }
    .grid { stroke: #D8DDE3; stroke-width: 1; }
    .axis-line { stroke: #9AA3AD; stroke-width: 1; }
  </style>
  <text x="88" y="38" class="title">Table V Computation-Cost Comparison</text>
  <text x="88" y="60" class="subtitle">SCAPE_ZK_updated.pdf Table V terms only; primitive timings calibrated from local benchmark data</text>
  <text x="24" y="302.0" class="axis" transform="rotate(-90 24 302.0)">Total estimated cost (ms, log scale)</text>
  <line x1="88" y1="508.0" x2="932" y2="508.0" class="grid"/>
  <text x="76" y="512.0" text-anchor="end" class="axis">0.0100</text>
  <line x1="88" y1="436.5" x2="932" y2="436.5" class="grid"/>
  <text x="76" y="440.5" text-anchor="end" class="axis">0.1000</text>
  <line x1="88" y1="365.0" x2="932" y2="365.0" class="grid"/>
  <text x="76" y="369.0" text-anchor="end" class="axis">1.00</text>
  <line x1="88" y1="293.5" x2="932" y2="293.5" class="grid"/>
  <text x="76" y="297.5" text-anchor="end" class="axis">10.0</text>
  <line x1="88" y1="222.0" x2="932" y2="222.0" class="grid"/>
  <text x="76" y="226.0" text-anchor="end" class="axis">100</text>
  <line x1="88" y1="150.5" x2="932" y2="150.5" class="grid"/>
  <text x="76" y="154.5" text-anchor="end" class="axis">1.00s</text>
  <line x1="88" y1="100.5" x2="932" y2="100.5" class="grid"/>
  <text x="76" y="104.5" text-anchor="end" class="axis">5.00s</text>
  <line x1="88.0" y1="508" x2="88.0" y2="513" class="axis-line"/>
  <text x="88.0" y="531" text-anchor="middle" class="axis">1</text>
  <line x1="126.2" y1="508" x2="126.2" y2="513" class="axis-line"/>
  <text x="126.2" y="531" text-anchor="middle" class="axis">10</text>
  <line x1="295.8" y1="508" x2="295.8" y2="513" class="axis-line"/>
  <text x="295.8" y="531" text-anchor="middle" class="axis">50</text>
  <line x1="507.9" y1="508" x2="507.9" y2="513" class="axis-line"/>
  <text x="507.9" y="531" text-anchor="middle" class="axis">100</text>
  <line x1="932.0" y1="508" x2="932.0" y2="513" class="axis-line"/>
  <text x="932.0" y="531" text-anchor="middle" class="axis">200</text>
  <line x1="88" y1="508" x2="932" y2="508" class="axis-line"/>
  <line x1="88" y1="96" x2="88" y2="508" class="axis-line"/>
  <text x="510.0" y="564" text-anchor="middle" class="axis">Number of authorization requests, n</text>
  <polyline points="88.0,286.6 126.2,215.1 295.8,165.2 507.9,143.6 932.0,122.1" fill="none" stroke="#455A64" stroke-width="3" stroke-dasharray="6 4"/>
  <circle cx="88.0" cy="286.6" r="4" fill="#455A64"/>
  <circle cx="126.2" cy="215.1" r="4" fill="#455A64"/>
  <circle cx="295.8" cy="165.2" r="4" fill="#455A64"/>
  <circle cx="507.9" cy="143.6" r="4" fill="#455A64"/>
  <circle cx="932.0" cy="122.1" r="4" fill="#455A64"/>
  <polyline points="88.0,286.6 126.2,215.1 295.8,165.2 507.9,143.6 932.0,122.1" fill="none" stroke="#007C89" stroke-width="3"/>
  <circle cx="88.0" cy="286.6" r="4" fill="#007C89"/>
  <circle cx="126.2" cy="215.1" r="4" fill="#007C89"/>
  <circle cx="295.8" cy="165.2" r="4" fill="#007C89"/>
  <circle cx="507.9" cy="143.6" r="4" fill="#007C89"/>
  <circle cx="932.0" cy="122.1" r="4" fill="#007C89"/>
  <polyline points="88.0,243.6 126.2,198.8 295.8,152.8 507.9,131.8 932.0,110.6" fill="none" stroke="#C4932F" stroke-width="3" stroke-dasharray="3 3"/>
  <circle cx="88.0" cy="243.6" r="4" fill="#C4932F"/>
  <circle cx="126.2" cy="198.8" r="4" fill="#C4932F"/>
  <circle cx="295.8" cy="152.8" r="4" fill="#C4932F"/>
  <circle cx="507.9" cy="131.8" r="4" fill="#C4932F"/>
  <circle cx="932.0" cy="110.6" r="4" fill="#C4932F"/>
  <polyline points="88.0,247.2 126.2,208.1 295.8,163.6 507.9,142.9 932.0,121.7" fill="none" stroke="#C2185B" stroke-width="3"/>
  <circle cx="88.0" cy="247.2" r="4" fill="#C2185B"/>
  <circle cx="126.2" cy="208.1" r="4" fill="#C2185B"/>
  <circle cx="295.8" cy="163.6" r="4" fill="#C2185B"/>
  <circle cx="507.9" cy="142.9" r="4" fill="#C2185B"/>
  <circle cx="932.0" cy="121.7" r="4" fill="#C2185B"/>
  <line x1="88" y1="594" x2="116" y2="594" stroke="#455A64" stroke-width="3" stroke-dasharray="6 4"/>
  <circle cx="102" cy="594" r="4" fill="#455A64"/>
  <text x="126" y="598" class="legend">XAuth [6]</text>
  <line x1="303" y1="594" x2="331" y2="594" stroke="#007C89" stroke-width="3"/>
  <circle cx="317" cy="594" r="4" fill="#007C89"/>
  <text x="341" y="598" class="legend">SSL-XIoMT [8]</text>
  <line x1="518" y1="594" x2="546" y2="594" stroke="#C4932F" stroke-width="3" stroke-dasharray="3 3"/>
  <circle cx="532" cy="594" r="4" fill="#C4932F"/>
  <text x="556" y="598" class="legend">IIoT SSI [30]</text>
  <line x1="733" y1="594" x2="761" y2="594" stroke="#C2185B" stroke-width="3"/>
  <circle cx="747" cy="594" r="4" fill="#C2185B"/>
  <text x="771" y="598" class="legend">SCAPE-ZK</text>
  <text x="88" y="542" class="subtitle">T_zk^v=12.47 ms, T_pair=31.93 ms, T_grp=5.451 ms, T_hash=0.000660 ms</text>
</svg>
