<svg xmlns="http://www.w3.org/2000/svg" width="940" height="590" viewBox="0 0 940 590" role="img">
  <rect width="100%" height="100%" fill="#FFFFFF"/>
  <style>
    text { font-family: Arial, Helvetica, sans-serif; fill: #222831; }
    .title { font-size: 21px; font-weight: 700; }
    .subtitle { font-size: 12px; fill: #66707A; }
    .axis { font-size: 11px; fill: #66707A; }
    .label { font-size: 12px; }
    .value { font-size: 11px; font-weight: 700; }
    .legend { font-size: 12px; }
    .grid { stroke: #D8DDE3; stroke-width: 1; }
    .axis-line { stroke: #9AA3AD; stroke-width: 1; }
  </style>
  <text x="92" y="38" class="title">Table V Cost Breakdown at n=100</text>
  <text x="92" y="60" class="subtitle">Stacked off-chain and on-chain cost components; schemes limited to Table V</text>
  <text x="24" y="285.0" class="axis" transform="rotate(-90 24 285.0)">Estimated cost (ms)</text>
  <line x1="92" y1="478.0" x2="895" y2="478.0" class="grid"/>
  <text x="80" y="482.0" text-anchor="end" class="axis">0.0000</text>
  <line x1="92" y1="400.8" x2="895" y2="400.8" class="grid"/>
  <text x="80" y="404.8" text-anchor="end" class="axis">428</text>
  <line x1="92" y1="323.6" x2="895" y2="323.6" class="grid"/>
  <text x="80" y="327.6" text-anchor="end" class="axis">855</text>
  <line x1="92" y1="246.4" x2="895" y2="246.4" class="grid"/>
  <text x="80" y="250.4" text-anchor="end" class="axis">1.28s</text>
  <line x1="92" y1="169.2" x2="895" y2="169.2" class="grid"/>
  <text x="80" y="173.2" text-anchor="end" class="axis">1.71s</text>
  <line x1="92" y1="92.0" x2="895" y2="92.0" class="grid"/>
  <text x="80" y="96.0" text-anchor="end" class="axis">2.14s</text>
  <line x1="92" y1="478" x2="895" y2="478" class="axis-line"/>
  <line x1="92" y1="92" x2="92" y2="478" class="axis-line"/>
  <rect x="132.0" y="255.3" width="150.8" height="222.7" rx="3" fill="#007C89"/>
  <line x1="132.0" y1="255.3" x2="282.8" y2="255.3" stroke="#D95F43" stroke-width="2"/>
  <text x="207.4" y="247.3" text-anchor="middle" class="value">1.23s</text>
  <text x="207.4" y="503" text-anchor="middle" class="label">XAuth [6]</text>
  <rect x="322.8" y="255.3" width="150.8" height="222.7" rx="3" fill="#007C89"/>
  <line x1="322.8" y1="255.3" x2="473.5" y2="255.3" stroke="#D95F43" stroke-width="2"/>
  <text x="398.1" y="247.3" text-anchor="middle" class="value">1.23s</text>
  <text x="398.1" y="503" text-anchor="middle" class="label">SSL-XIoMT [8]</text>
  <rect x="513.5" y="156.3" width="150.8" height="321.7" rx="3" fill="#007C89"/>
  <line x1="513.5" y1="156.3" x2="664.2" y2="156.3" stroke="#D95F43" stroke-width="2"/>
  <text x="588.9" y="148.3" text-anchor="middle" class="value">1.78s</text>
  <text x="588.9" y="503" text-anchor="middle" class="label">Scheme [30]</text>
  <rect x="704.2" y="255.3" width="150.8" height="222.7" rx="3" fill="#007C89"/>
  <rect x="704.2" y="249.8" width="150.8" height="5.5" rx="3" fill="#D95F43"/>
  <text x="779.6" y="241.8" text-anchor="middle" class="value">1.26s</text>
  <text x="779.6" y="503" text-anchor="middle" class="label">SCAPE-ZK</text>
  <rect x="92" y="545" width="13" height="13" rx="2" fill="#007C89"/>
  <text x="112" y="556" class="legend">Off-chain Table V cost</text>
  <rect x="302" y="545" width="13" height="13" rx="2" fill="#D95F43"/>
  <text x="322" y="556" class="legend">On-chain Table V cost</text>
</svg>
