<svg xmlns="http://www.w3.org/2000/svg" width="1120" height="680" viewBox="0 0 1120 680" role="img">
  <rect width="100%" height="100%" fill="#ffffff"/>
  <style>
    text { font-family: "Times New Roman", Times, serif; fill: #111111; }
    .title { font-size: 22px; font-weight: 400; }
    .axis-label { font-size: 16px; }
    .tick { font-size: 12px; }
    .legend { font-size: 13px; }
    .note { font-size: 12px; }
  </style>
  <text x="560.0" y="45" text-anchor="middle" class="title">On-chain Authorization Verification Cost</text>
  <line x1="124" y1="534.0" x2="814" y2="534.0" stroke="#9aa0a6" stroke-width="0.8" opacity="0.35"/>
  <line x1="124" y1="515.4" x2="814" y2="515.4" stroke="#9aa0a6" stroke-width="0.45" opacity="0.2"/>
  <line x1="124" y1="504.5" x2="814" y2="504.5" stroke="#9aa0a6" stroke-width="0.45" opacity="0.2"/>
  <line x1="124" y1="496.8" x2="814" y2="496.8" stroke="#9aa0a6" stroke-width="0.45" opacity="0.2"/>
  <line x1="124" y1="490.8" x2="814" y2="490.8" stroke="#9aa0a6" stroke-width="0.45" opacity="0.2"/>
  <line x1="124" y1="485.9" x2="814" y2="485.9" stroke="#9aa0a6" stroke-width="0.45" opacity="0.2"/>
  <line x1="124" y1="481.8" x2="814" y2="481.8" stroke="#9aa0a6" stroke-width="0.45" opacity="0.2"/>
  <line x1="124" y1="478.2" x2="814" y2="478.2" stroke="#9aa0a6" stroke-width="0.45" opacity="0.2"/>
  <line x1="124" y1="475.0" x2="814" y2="475.0" stroke="#9aa0a6" stroke-width="0.45" opacity="0.2"/>
  <line x1="124" y1="472.2" x2="814" y2="472.2" stroke="#9aa0a6" stroke-width="0.8" opacity="0.35"/>
  <line x1="124" y1="453.6" x2="814" y2="453.6" stroke="#9aa0a6" stroke-width="0.45" opacity="0.2"/>
  <line x1="124" y1="442.7" x2="814" y2="442.7" stroke="#9aa0a6" stroke-width="0.45" opacity="0.2"/>
  <line x1="124" y1="435.0" x2="814" y2="435.0" stroke="#9aa0a6" stroke-width="0.45" opacity="0.2"/>
  <line x1="124" y1="429.0" x2="814" y2="429.0" stroke="#9aa0a6" stroke-width="0.45" opacity="0.2"/>
  <line x1="124" y1="424.1" x2="814" y2="424.1" stroke="#9aa0a6" stroke-width="0.45" opacity="0.2"/>
  <line x1="124" y1="420.0" x2="814" y2="420.0" stroke="#9aa0a6" stroke-width="0.45" opacity="0.2"/>
  <line x1="124" y1="416.4" x2="814" y2="416.4" stroke="#9aa0a6" stroke-width="0.45" opacity="0.2"/>
  <line x1="124" y1="413.3" x2="814" y2="413.3" stroke="#9aa0a6" stroke-width="0.45" opacity="0.2"/>
  <line x1="124" y1="410.4" x2="814" y2="410.4" stroke="#9aa0a6" stroke-width="0.8" opacity="0.35"/>
  <line x1="124" y1="391.8" x2="814" y2="391.8" stroke="#9aa0a6" stroke-width="0.45" opacity="0.2"/>
  <line x1="124" y1="380.9" x2="814" y2="380.9" stroke="#9aa0a6" stroke-width="0.45" opacity="0.2"/>
  <line x1="124" y1="373.2" x2="814" y2="373.2" stroke="#9aa0a6" stroke-width="0.45" opacity="0.2"/>
  <line x1="124" y1="367.2" x2="814" y2="367.2" stroke="#9aa0a6" stroke-width="0.45" opacity="0.2"/>
  <line x1="124" y1="362.3" x2="814" y2="362.3" stroke="#9aa0a6" stroke-width="0.45" opacity="0.2"/>
  <line x1="124" y1="358.2" x2="814" y2="358.2" stroke="#9aa0a6" stroke-width="0.45" opacity="0.2"/>
  <line x1="124" y1="354.6" x2="814" y2="354.6" stroke="#9aa0a6" stroke-width="0.45" opacity="0.2"/>
  <line x1="124" y1="351.5" x2="814" y2="351.5" stroke="#9aa0a6" stroke-width="0.45" opacity="0.2"/>
  <line x1="124" y1="348.6" x2="814" y2="348.6" stroke="#9aa0a6" stroke-width="0.8" opacity="0.35"/>
  <line x1="124" y1="330.0" x2="814" y2="330.0" stroke="#9aa0a6" stroke-width="0.45" opacity="0.2"/>
  <line x1="124" y1="319.2" x2="814" y2="319.2" stroke="#9aa0a6" stroke-width="0.45" opacity="0.2"/>
  <line x1="124" y1="311.4" x2="814" y2="311.4" stroke="#9aa0a6" stroke-width="0.45" opacity="0.2"/>
  <line x1="124" y1="305.4" x2="814" y2="305.4" stroke="#9aa0a6" stroke-width="0.45" opacity="0.2"/>
  <line x1="124" y1="300.6" x2="814" y2="300.6" stroke="#9aa0a6" stroke-width="0.45" opacity="0.2"/>
  <line x1="124" y1="296.4" x2="814" y2="296.4" stroke="#9aa0a6" stroke-width="0.45" opacity="0.2"/>
  <line x1="124" y1="292.8" x2="814" y2="292.8" stroke="#9aa0a6" stroke-width="0.45" opacity="0.2"/>
  <line x1="124" y1="289.7" x2="814" y2="289.7" stroke="#9aa0a6" stroke-width="0.45" opacity="0.2"/>
  <line x1="124" y1="286.8" x2="814" y2="286.8" stroke="#9aa0a6" stroke-width="0.8" opacity="0.35"/>
  <line x1="124" y1="268.2" x2="814" y2="268.2" stroke="#9aa0a6" stroke-width="0.45" opacity="0.2"/>
  <line x1="124" y1="257.4" x2="814" y2="257.4" stroke="#9aa0a6" stroke-width="0.45" opacity="0.2"/>
  <line x1="124" y1="249.6" x2="814" y2="249.6" stroke="#9aa0a6" stroke-width="0.45" opacity="0.2"/>
  <line x1="124" y1="243.7" x2="814" y2="243.7" stroke="#9aa0a6" stroke-width="0.45" opacity="0.2"/>
  <line x1="124" y1="238.8" x2="814" y2="238.8" stroke="#9aa0a6" stroke-width="0.45" opacity="0.2"/>
  <line x1="124" y1="234.6" x2="814" y2="234.6" stroke="#9aa0a6" stroke-width="0.45" opacity="0.2"/>
  <line x1="124" y1="231.0" x2="814" y2="231.0" stroke="#9aa0a6" stroke-width="0.45" opacity="0.2"/>
  <line x1="124" y1="227.9" x2="814" y2="227.9" stroke="#9aa0a6" stroke-width="0.45" opacity="0.2"/>
  <line x1="124" y1="225.1" x2="814" y2="225.1" stroke="#9aa0a6" stroke-width="0.8" opacity="0.35"/>
  <line x1="124" y1="206.5" x2="814" y2="206.5" stroke="#9aa0a6" stroke-width="0.45" opacity="0.2"/>
  <line x1="124" y1="195.6" x2="814" y2="195.6" stroke="#9aa0a6" stroke-width="0.45" opacity="0.2"/>
  <line x1="124" y1="187.9" x2="814" y2="187.9" stroke="#9aa0a6" stroke-width="0.45" opacity="0.2"/>
  <line x1="124" y1="181.9" x2="814" y2="181.9" stroke="#9aa0a6" stroke-width="0.45" opacity="0.2"/>
  <line x1="124" y1="177.0" x2="814" y2="177.0" stroke="#9aa0a6" stroke-width="0.45" opacity="0.2"/>
  <line x1="124" y1="172.8" x2="814" y2="172.8" stroke="#9aa0a6" stroke-width="0.45" opacity="0.2"/>
  <line x1="124" y1="169.3" x2="814" y2="169.3" stroke="#9aa0a6" stroke-width="0.45" opacity="0.2"/>
  <line x1="124" y1="166.1" x2="814" y2="166.1" stroke="#9aa0a6" stroke-width="0.45" opacity="0.2"/>
  <line x1="124" y1="163.3" x2="814" y2="163.3" stroke="#9aa0a6" stroke-width="0.8" opacity="0.35"/>
  <line x1="124" y1="144.7" x2="814" y2="144.7" stroke="#9aa0a6" stroke-width="0.45" opacity="0.2"/>
  <line x1="124" y1="133.8" x2="814" y2="133.8" stroke="#9aa0a6" stroke-width="0.45" opacity="0.2"/>
  <line x1="124" y1="126.1" x2="814" y2="126.1" stroke="#9aa0a6" stroke-width="0.45" opacity="0.2"/>
  <line x1="124" y1="120.1" x2="814" y2="120.1" stroke="#9aa0a6" stroke-width="0.45" opacity="0.2"/>
  <line x1="124" y1="115.2" x2="814" y2="115.2" stroke="#9aa0a6" stroke-width="0.45" opacity="0.2"/>
  <line x1="124" y1="111.1" x2="814" y2="111.1" stroke="#9aa0a6" stroke-width="0.45" opacity="0.2"/>
  <line x1="124" y1="107.5" x2="814" y2="107.5" stroke="#9aa0a6" stroke-width="0.45" opacity="0.2"/>
  <line x1="124" y1="104.3" x2="814" y2="104.3" stroke="#9aa0a6" stroke-width="0.45" opacity="0.2"/>
  <line x1="124" y1="101.5" x2="814" y2="101.5" stroke="#9aa0a6" stroke-width="0.8" opacity="0.35"/>
  <line x1="124" y1="82.9" x2="814" y2="82.9" stroke="#9aa0a6" stroke-width="0.45" opacity="0.2"/>
  <line x1="124" y1="72.0" x2="814" y2="72.0" stroke="#9aa0a6" stroke-width="0.45" opacity="0.2"/>
  <line x1="124.0" y1="72" x2="124.0" y2="534" stroke="#9aa0a6" stroke-width="0.55" opacity="0.25"/>
  <line x1="200.7" y1="72" x2="200.7" y2="534" stroke="#9aa0a6" stroke-width="0.55" opacity="0.25"/>
  <line x1="277.3" y1="72" x2="277.3" y2="534" stroke="#9aa0a6" stroke-width="0.55" opacity="0.25"/>
  <line x1="354.0" y1="72" x2="354.0" y2="534" stroke="#9aa0a6" stroke-width="0.55" opacity="0.25"/>
  <line x1="430.7" y1="72" x2="430.7" y2="534" stroke="#9aa0a6" stroke-width="0.55" opacity="0.25"/>
  <line x1="507.3" y1="72" x2="507.3" y2="534" stroke="#9aa0a6" stroke-width="0.55" opacity="0.25"/>
  <line x1="584.0" y1="72" x2="584.0" y2="534" stroke="#9aa0a6" stroke-width="0.55" opacity="0.25"/>
  <line x1="660.7" y1="72" x2="660.7" y2="534" stroke="#9aa0a6" stroke-width="0.55" opacity="0.25"/>
  <line x1="737.3" y1="72" x2="737.3" y2="534" stroke="#9aa0a6" stroke-width="0.55" opacity="0.25"/>
  <line x1="814.0" y1="72" x2="814.0" y2="534" stroke="#9aa0a6" stroke-width="0.55" opacity="0.25"/>
  <rect x="124" y="72" width="690" height="462" fill="none" stroke="#111111" stroke-width="1"/>
  <text x="110" y="539.0" text-anchor="end" class="tick">0.001</text>
  <text x="110" y="477.2" text-anchor="end" class="tick">0.01</text>
  <text x="110" y="415.4" text-anchor="end" class="tick">0.1</text>
  <text x="110" y="353.6" text-anchor="end" class="tick">1</text>
  <text x="110" y="291.8" text-anchor="end" class="tick">10</text>
  <text x="110" y="230.1" text-anchor="end" class="tick">100</text>
  <text x="124.0" y="556" text-anchor="middle" class="tick">1</text>
  <text x="200.7" y="556" text-anchor="middle" class="tick">10</text>
  <text x="277.3" y="556" text-anchor="middle" class="tick">50</text>
  <text x="354.0" y="556" text-anchor="middle" class="tick">100</text>
  <text x="430.7" y="556" text-anchor="middle" class="tick">200</text>
  <text x="507.3" y="556" text-anchor="middle" class="tick">1000</text>
  <text x="584.0" y="556" text-anchor="middle" class="tick">5000</text>
  <text x="660.7" y="556" text-anchor="middle" class="tick">10000</text>
  <text x="737.3" y="556" text-anchor="middle" class="tick">20000</text>
  <text x="814.0" y="556" text-anchor="middle" class="tick">50000</text>
  <text x="469.0" y="589" text-anchor="middle" class="axis-label">Workload (Number of requests)</text>
  <text x="32" y="303.0" text-anchor="middle" class="axis-label" transform="rotate(-90 32 303.0)">Verification cost (ms)</text>
  <polyline points="124.0,276.5 200.7,276.5 277.3,276.5 354.0,276.5 430.7,276.5 507.3,276.5 584.0,276.5 660.7,276.5 737.3,276.5 814.0,276.5" fill="none" stroke="#e5a800" stroke-width="2.5" stroke-linecap="round" stroke-linejoin="round"/>
  <polyline points="124.0,258.8 200.7,255.1 277.3,243.1 354.0,233.2 430.7,220.2 507.3,182.6 584.0,140.6 660.7,122.2 737.3,103.7 814.0,79.2" fill="none" stroke="#2ca02c" stroke-width="2.5" stroke-dasharray="8 4" stroke-linecap="round" stroke-linejoin="round"/>
  <polyline points="124.0,512.7 200.7,450.9 277.3,407.7 354.0,389.1 430.7,370.5 507.3,327.3 584.0,284.1 660.7,265.5 737.3,246.9 814.0,222.3" fill="none" stroke="#c94a3b" stroke-width="2.5" stroke-dasharray="10 4 2 4" stroke-linecap="round" stroke-linejoin="round"/>
  <polyline points="124.0,512.7 200.7,450.9 277.3,407.7 354.0,389.1 430.7,370.5 507.3,327.3 584.0,284.1 660.7,265.5 737.3,246.9 814.0,222.3" fill="none" stroke="#1f5f9f" stroke-width="2.5" stroke-dasharray="2 4" stroke-linecap="round" stroke-linejoin="round"/>
  <line x1="852" y1="106" x2="886" y2="106" stroke="#e5a800" stroke-width="2.5" stroke-linecap="round"/>
  <text x="896" y="110" class="legend">SCAPE-ZK (Ours)</text>
  <line x1="852" y1="134" x2="886" y2="134" stroke="#2ca02c" stroke-width="2.5" stroke-dasharray="8 4" stroke-linecap="round"/>
  <text x="896" y="138" class="legend">IIoT SSI Identity Resolution [30]</text>
  <line x1="852" y1="162" x2="886" y2="162" stroke="#c94a3b" stroke-width="2.5" stroke-dasharray="10 4 2 4" stroke-linecap="round"/>
  <text x="896" y="166" class="legend">XAuth [6]</text>
  <line x1="852" y1="190" x2="886" y2="190" stroke="#1f5f9f" stroke-width="2.5" stroke-dasharray="2 4" stroke-linecap="round"/>
  <text x="896" y="194" class="legend">SSL-XIoMT [8]</text>
</svg>